<mxfile host="app.diagrams.net" agent="Mozilla/5.0 (Windows NT 10.0; Win64; x64) AppleWebKit/537.36 (KHTML, like Gecko) Chrome/131.0.0.0 Safari/537.36 OPR/116.0.0.0" version="26.0.16">
  <diagram name="Page-1" id="03018318-947c-dd8e-b7a3-06fadd420f32">
    <mxGraphModel dx="3491" dy="1986" grid="1" gridSize="10" guides="1" tooltips="1" connect="1" arrows="1" fold="1" page="1" pageScale="1" pageWidth="1100" pageHeight="850" background="#ffffff" math="0" shadow="0">
      <root>
        <mxCell id="0" />
        <mxCell id="1" parent="0" />
        <mxCell id="677b7b8949515195-2" value="&lt;font style=&quot;font-size: 48px;&quot;&gt;LOGO&lt;/font&gt;" style="whiteSpace=wrap;html=1;rounded=0;shadow=0;labelBackgroundColor=none;strokeWidth=1;fontFamily=Verdana;fontSize=28;align=center;comic=1;rotation=0;" parent="1" vertex="1">
          <mxGeometry x="-115" y="-610" width="230" height="75" as="geometry" />
        </mxCell>
        <mxCell id="677b7b8949515195-44" value="&lt;font style=&quot;font-size: 36px;&quot;&gt;Slogan goes here&lt;/font&gt;" style="text;html=1;points=[];align=left;verticalAlign=top;spacingTop=-4;fontSize=14;fontFamily=Verdana" parent="1" vertex="1">
          <mxGeometry x="-160" y="-490" width="320" height="50" as="geometry" />
        </mxCell>
        <mxCell id="_zSwTG5S_GAaZdEpA28d-1" value="&lt;div style=&quot;text-align: justify&quot;&gt;&lt;br&gt;&lt;/div&gt;" style="whiteSpace=wrap;html=1;rounded=0;shadow=0;labelBackgroundColor=none;strokeWidth=1;fillColor=none;fontFamily=Verdana;fontSize=12;align=center;verticalAlign=top;spacing=10;comic=1;" vertex="1" parent="1">
          <mxGeometry x="-750" y="-670" width="1520" height="780" as="geometry" />
        </mxCell>
        <mxCell id="_zSwTG5S_GAaZdEpA28d-2" value="&lt;font style=&quot;font-size: 18px;&quot;&gt;Usernickname&lt;/font&gt;" style="rounded=0;whiteSpace=wrap;html=1;" vertex="1" parent="1">
          <mxGeometry x="-200" y="-390" width="390" height="50" as="geometry" />
        </mxCell>
        <mxCell id="_zSwTG5S_GAaZdEpA28d-4" value="&lt;font style=&quot;font-size: 18px;&quot;&gt;Username&lt;/font&gt;" style="rounded=0;whiteSpace=wrap;html=1;" vertex="1" parent="1">
          <mxGeometry x="-200" y="-300" width="390" height="50" as="geometry" />
        </mxCell>
        <mxCell id="_zSwTG5S_GAaZdEpA28d-5" value="&lt;font style=&quot;font-size: 18px;&quot;&gt;Enter password&lt;/font&gt;" style="rounded=0;whiteSpace=wrap;html=1;" vertex="1" parent="1">
          <mxGeometry x="-200" y="-210" width="390" height="50" as="geometry" />
        </mxCell>
        <mxCell id="_zSwTG5S_GAaZdEpA28d-6" value="&lt;font style=&quot;font-size: 18px;&quot;&gt;Create account&lt;/font&gt;" style="rounded=0;whiteSpace=wrap;html=1;" vertex="1" parent="1">
          <mxGeometry x="-130" y="10" width="260" height="50" as="geometry" />
        </mxCell>
        <mxCell id="_zSwTG5S_GAaZdEpA28d-8" value="&lt;div style=&quot;text-align: justify&quot;&gt;&lt;br&gt;&lt;/div&gt;" style="whiteSpace=wrap;html=1;rounded=0;shadow=0;labelBackgroundColor=none;strokeWidth=1;fillColor=none;fontFamily=Verdana;fontSize=12;align=center;verticalAlign=top;spacing=10;comic=1;" vertex="1" parent="1">
          <mxGeometry x="-960" y="-770" width="1920" height="1080" as="geometry" />
        </mxCell>
        <mxCell id="_zSwTG5S_GAaZdEpA28d-9" value="&lt;font style=&quot;font-size: 18px;&quot;&gt;Repeat password&lt;/font&gt;" style="rounded=0;whiteSpace=wrap;html=1;" vertex="1" parent="1">
          <mxGeometry x="-200" y="-120" width="390" height="50" as="geometry" />
        </mxCell>
      </root>
    </mxGraphModel>
  </diagram>
</mxfile>
